
<global>
ampeg_release=1.5
</global>

<group>
group_label=RR1
seq_length=8

<region>
hivel=127
key=D3
lovel=96
offset=507
sample=Tambourine_Hit_F_D4_RR1.opus
volume=+0.77
</region>

<region>
hivel=95
key=D3
lovel=64
offset=626
sample=Tambourine_Hit_MF_D4_RR1.opus
volume=+7.32
</region>

<region>
end=96097
hivel=63
key=D3
lovel=32
offset=13611
sample=Tambourine_Hit_MP_D4_RR1.opus
volume=+19.26
</region>

<region>
hivel=31
key=D3
lovel=0
offset=13260
sample=Tambourine_Hit_P_D4_RR1.opus
volume=+32.82
</region>
</group>

<group>
group_label=RR2
seq_length=8
seq_position=2

<region>
end=79853
hivel=127
key=D3
lovel=96
offset=507
sample=Tambourine_Hit_F_D4_RR2.opus
volume=-0.35
</region>

<region>
end=79024
hivel=95
key=D3
lovel=64
offset=656
sample=Tambourine_Hit_MF_D4_RR2.opus
volume=+5.26
</region>

<region>
end=95698
hivel=63
key=D3
lovel=32
offset=12590
sample=Tambourine_Hit_MP_D4_RR2.opus
volume=+22.34
</region>

<region>
end=92982
hivel=31
key=D3
lovel=0
offset=13210
sample=Tambourine_Hit_P_D4_RR2.opus
volume=+32.59
</region>
</group>

<group>
group_label=RR3
seq_length=8
seq_position=3

<region>
end=80473
hivel=127
key=D3
lovel=96
offset=531
sample=Tambourine_Hit_F_D4_RR3.opus
volume=-4.47
</region>

<region>
hivel=95
key=D3
lovel=64
offset=636
sample=Tambourine_Hit_MF_D4_RR3.opus
volume=+9.58
</region>

<region>
end=94766
hivel=63
key=D3
lovel=32
offset=13519
sample=Tambourine_Hit_MP_D4_RR3.opus
volume=+20.57
</region>

<region>
end=92972
hivel=31
key=D3
lovel=0
offset=13509
sample=Tambourine_Hit_P_D4_RR3.opus
volume=+32.97
</region>
</group>

<group>
group_label=RR4
seq_length=8
seq_position=4

<region>
end=77439
hivel=127
key=D3
lovel=96
offset=495
sample=Tambourine_Hit_F_D4_RR4.opus
volume=-4.20
</region>

<region>
hivel=95
key=D3
lovel=64
offset=656
sample=Tambourine_Hit_MF_D4_RR4.opus
volume=+8.62
</region>

<region>
end=92537
hivel=63
key=D3
lovel=32
offset=12865
sample=Tambourine_Hit_MP_D4_RR4.opus
volume=+19.05
</region>

<region>
end=93311
hivel=31
key=D3
lovel=0
offset=12888
sample=Tambourine_Hit_P_D4_RR4.opus
volume=+32.14
</region>
</group>

<group>
group_label=RR5
seq_length=8
seq_position=5

<region>
hivel=127
key=D3
lovel=96
offset=535
sample=Tambourine_Hit_F_D4_RR5.opus
volume=-4.33
</region>

<region>
end=82426
hivel=95
key=D3
lovel=64
offset=565
sample=Tambourine_Hit_MF_D4_RR5.opus
volume=+5.87
</region>

<region>
hivel=63
key=D3
lovel=32
offset=7881
sample=Tambourine_Hit_MP_D4_RR5.opus
volume=+19.65
</region>

<region>
end=87139
hivel=31
key=D3
lovel=0
offset=12973
sample=Tambourine_Hit_P_D4_RR5.opus
volume=+33.05
</region>
</group>

<group>
group_label=RR6
seq_length=8
seq_position=6

<region>
end=76695
hivel=127
key=D3
lovel=96
offset=509
sample=Tambourine_Hit_F_D4_RR6.opus
volume=-5.27
</region>

<region>
hivel=95
key=D3
lovel=64
offset=667
sample=Tambourine_Hit_MF_D4_RR6.opus
volume=+6.40
</region>

<region>
end=87024
hivel=63
key=D3
lovel=32
offset=10837
sample=Tambourine_Hit_MP_D4_RR6.opus
volume=+17.29
</region>

<region>
hivel=31
key=D3
lovel=0
offset=12924
sample=Tambourine_Hit_P_D4_RR6.opus
volume=+27.07
</region>
</group>

<group>
group_label=RR7
seq_length=8
seq_position=7

<region>
end=80801
hivel=127
key=D3
lovel=96
offset=504
sample=Tambourine_Hit_F_D4_RR7.opus
volume=-4.43
</region>

<region>
hivel=95
key=D3
lovel=64
offset=504
sample=Tambourine_Hit_MF_D4_RR7.opus
volume=+5.72
</region>

<region>
end=78965
hivel=63
key=D3
lovel=32
offset=699
sample=Tambourine_Hit_MP_D4_RR7.opus
volume=+18.99
</region>

<region>
hivel=31
key=D3
lovel=0
offset=12204
sample=Tambourine_Hit_P_D4_RR7.opus
volume=+31.61
</region>
</group>

<group>
group_label=RR8
seq_length=8
seq_position=8

<region>
hivel=127
key=D3
lovel=96
offset=479
sample=Tambourine_Hit_F_D4_RR8.opus
volume=-3.16
</region>

<region>
hivel=95
key=D3
lovel=64
offset=650
sample=Tambourine_Hit_MF_D4_RR8.opus
volume=+3.77
</region>

<region>
hivel=63
key=D3
lovel=32
offset=7121
sample=Tambourine_Hit_MP_D4_RR8.opus
volume=+18.88
</region>

<region>
hivel=31
key=D3
lovel=0
offset=12377
sample=Tambourine_Hit_P_D4_RR8.opus
volume=+34.23
</region>
</group>